<?xml version="1.0" encoding="utf-8"?>
<!-- Generator: Adobe Illustrator 25.0.1, SVG Export Plug-In . SVG Version: 6.00 Build 0)  -->
<svg version="1.1" id="Layer_1" xmlns="http://www.w3.org/2000/svg" xmlns:xlink="http://www.w3.org/1999/xlink" x="0px" y="0px"
	 viewBox="0 0 311.81 141.73" style="enable-background:new 0 0 311.81 141.73;" xml:space="preserve">
<style type="text/css">
	.st0{fill:#F3725F;}
	.st1{opacity:0.2;}
	.st2{fill:#5C9942;}
	.st3{fill:#FDBA34;}
	.st4{fill:#3D3B3E;}
	.st5{fill:#4F4D50;}
	.st6{fill:#74B748;}
	.st7{fill:#E0E0E0;}
	.st8{fill:#BE1E2D;}
</style>
<g>
	<path class="st0" d="M118.24,48.76c-0.81,1.59-2.85,2.69-4.42,1.86c-1.86-0.98-1.78-3.6-1.96-5.69c-0.18-2.13-0.96-4.28-2.53-5.75
		c-1.56-1.46-3.99-2.09-5.93-1.2c-1.09,0.5-1.96,1.41-3.09,1.81c-2.62,0.91-5.35-1.39-6.39-3.96c-1.04-2.57-1.05-5.45-1.99-8.05
		c-0.94-2.6-3.43-5.08-6.13-4.48c2.9,1.66,3.46,5.64,2.94,8.93c-0.52,3.3-1.77,6.59-1.23,9.88c0.84,5.17,5.84,8.87,6.9,14
		c0.32,1.54,0.22,3.28-0.77,4.51c-0.98,1.23-3.03,1.66-4.16,0.56c-0.48-0.47-0.74-1.11-1.02-1.72c-1.78-3.91-5.12-7.07-9.12-8.63
		c-1,3.71,3.18,6.62,4.67,10.17c1.07,2.56,0.68,5.47,0.15,8.19c-0.53,2.72-1.18,5.53-0.58,8.23c0.6,2.71,2.89,5.28,5.66,5.14
		l34.01-21.65c1.72-6.02-0.02-12.9-4.38-17.39C118.97,45.3,119.05,47.17,118.24,48.76z"/>
	<g class="st1">
		<path d="M113.71,55.55c-0.76,0.16-1.33,0.85-2.09,1.03c-0.88,0.22-1.78-0.29-2.41-0.95c-0.62-0.65-1.07-1.46-1.71-2.1
			c-0.64-0.64-1.57-1.11-2.43-0.84c-1.46,0.46-1.76,2.65-3.2,3.18c-0.78,0.29-1.68-0.03-2.3-0.59c-0.62-0.56-1.02-1.31-1.4-2.05
			c-0.23,1.8,0.26,3.61,0.85,5.33s1.28,3.42,1.48,5.22c0.2,1.8-0.19,3.77-1.48,5.05c-0.54,0.53-1.25,0.92-2,0.88
			c-1.59-0.1-2.8-2.08-4.33-1.67c0.29,1.1,0.13,2.27,0,3.4c-0.14,1.13-0.25,2.31,0.13,3.39c0.38,1.08,4.21,5.63,5.34,5.57
			l17.72-20.09c0.27-1.01,0.49-2.1,0.18-3.1C115.75,56.19,114.74,55.33,113.71,55.55z"/>
	</g>
	<g>
		<path class="st0" d="M81.51,35.5c0,0-0.51-3.39-2.27-5.35c-1.75-1.95-2.34-2.99-2.41-4.04c-0.07-1.05-0.61-1.3-0.61-1.3
			s-1.71,2.06-1.12,4.26c0.6,2.2,2.02,2.12,3.47,3.38C80.02,33.72,81.51,35.5,81.51,35.5z"/>
	</g>
	<g>
		<g>
			<path class="st0" d="M72.55,42.03c0.08-0.03,0.16-0.06,0.24-0.09c0.13-0.05,0.27-0.07,0.41-0.05c0.14,0,0.27,0.02,0.39,0.09
				c0.13,0.05,0.24,0.14,0.32,0.24c0.1,0.1,0.18,0.21,0.22,0.35c0.02,0.09,0.04,0.18,0.06,0.28c0.01,0.18-0.02,0.36-0.09,0.53
				c-0.05,0.08-0.1,0.15-0.14,0.23c-0.12,0.15-0.27,0.25-0.45,0.32c-0.08,0.03-0.16,0.06-0.24,0.09c-0.13,0.05-0.27,0.07-0.41,0.05
				c-0.14,0-0.27-0.02-0.39-0.09c-0.13-0.05-0.24-0.14-0.32-0.24c-0.1-0.1-0.18-0.21-0.22-0.35c-0.02-0.09-0.04-0.18-0.06-0.28
				c-0.01-0.18,0.02-0.36,0.09-0.53c0.05-0.08,0.1-0.15,0.14-0.23C72.22,42.2,72.37,42.1,72.55,42.03L72.55,42.03z"/>
		</g>
	</g>
	<g>
		<g>
			<path class="st0" d="M89.76,14.51c-0.64,0.23-1-0.75-0.36-0.99C90.03,13.29,90.4,14.28,89.76,14.51L89.76,14.51z"/>
		</g>
	</g>
	<g>
		<g>
			<path class="st0" d="M70.35,35.04c-0.64,0.23-1-0.76-0.36-0.99C70.63,33.82,70.99,34.81,70.35,35.04L70.35,35.04z"/>
		</g>
	</g>
	<g>
		<g>
			<path class="st0" d="M115.29,34.53c-0.11-0.04-0.21-0.08-0.32-0.12c-0.06-0.03-0.12-0.07-0.16-0.12
				c-0.05-0.05-0.09-0.11-0.11-0.17c-0.03-0.07-0.04-0.14-0.03-0.21c0-0.07,0.01-0.13,0.04-0.2c0.02-0.04,0.05-0.08,0.07-0.11
				c0.06-0.07,0.14-0.13,0.22-0.16c0.05-0.01,0.09-0.02,0.14-0.03c0.09-0.01,0.18,0.01,0.26,0.05c0.11,0.04,0.21,0.08,0.32,0.12
				c0.06,0.03,0.12,0.07,0.16,0.12c0.05,0.05,0.09,0.11,0.11,0.17c0.03,0.07,0.04,0.14,0.03,0.21c0,0.07-0.01,0.13-0.04,0.2
				c-0.02,0.04-0.05,0.08-0.07,0.11c-0.06,0.07-0.14,0.13-0.22,0.16c-0.05,0.01-0.09,0.02-0.14,0.03
				C115.46,34.58,115.37,34.57,115.29,34.53L115.29,34.53z"/>
		</g>
	</g>
	<g>
		<g>
			<path class="st0" d="M116.79,24.77c-0.11-0.04-0.21-0.08-0.32-0.12c-0.06-0.03-0.12-0.07-0.16-0.12
				c-0.05-0.05-0.09-0.11-0.11-0.17c-0.03-0.07-0.04-0.14-0.03-0.21c0-0.07,0.01-0.13,0.04-0.2c0.02-0.04,0.05-0.08,0.07-0.11
				c0.06-0.07,0.14-0.13,0.22-0.16c0.05-0.01,0.09-0.02,0.14-0.03c0.09-0.01,0.18,0.01,0.26,0.05c0.11,0.04,0.21,0.08,0.32,0.12
				c0.06,0.03,0.12,0.07,0.16,0.12c0.05,0.05,0.09,0.11,0.11,0.17c0.03,0.07,0.04,0.14,0.03,0.21c0,0.07-0.01,0.13-0.04,0.2
				c-0.02,0.04-0.05,0.08-0.07,0.11c-0.06,0.07-0.14,0.13-0.22,0.16c-0.05,0.01-0.09,0.02-0.14,0.03
				C116.96,24.82,116.87,24.81,116.79,24.77L116.79,24.77z"/>
		</g>
	</g>
</g>
<g id="XMLID_685_">
	<path id="XMLID_503_" class="st2" d="M220.17,94.33l-1.7,6.43c-0.23,0.87,0.29,1.75,1.15,1.98l1.65,0.44
		c0.87,0.23,1.38,1.12,1.15,1.98l-0.33,1.24c-0.23,0.87-1.12,1.38-1.98,1.15l0,0c-0.87-0.23-1.75,0.29-1.98,1.15l-0.54,2.06
		c-0.23,0.87,0.29,1.75,1.15,1.98l0,0c0.87,0.23,1.38,1.12,1.15,1.98l-0.39,1.48c-0.23,0.87-1.12,1.38-1.98,1.15L91.39,84.01
		c-0.87-0.23-1.38-1.12-1.15-1.98l0.39-1.48c0.23-0.87,1.12-1.38,1.98-1.15l0,0c0.87,0.23,1.75-0.29,1.98-1.15l0.55-2.06
		c0.23-0.87-0.29-1.75-1.15-1.98l0,0c-0.87-0.23-1.38-1.12-1.15-1.98l0.33-1.23c0.23-0.87,1.12-1.38,1.98-1.15l1.65,0.44
		c0.87,0.23,1.75-0.29,1.98-1.15l1.7-6.43c0.23-0.87-0.29-1.75-1.15-1.98l-1.65-0.44c-0.87-0.23-1.38-1.12-1.15-1.98l0.65-2.47
		c0.23-0.87,1.12-1.38,1.98-1.15l126.14,33.35c0.87,0.23,1.38,1.12,1.15,1.98l-0.65,2.47c-0.23,0.87-1.12,1.38-1.98,1.15l-1.65-0.44
		C221.29,92.95,220.4,93.47,220.17,94.33z"/>
	
		<rect id="XMLID_314_" x="91.79" y="100.52" transform="matrix(0.9668 0.2556 -0.2556 0.9668 32.0463 -35.653)" class="st2" width="122.8" height="9.89"/>
	<g id="XMLID_682_">
		<g id="XMLID_294_">
			
				<rect id="XMLID_501_" x="97.41" y="91.18" transform="matrix(0.9668 0.2556 -0.2556 0.9668 27.2234 -22.1573)" class="st3" width="2.9" height="4.95"/>
			
				<rect id="XMLID_315_" x="101.85" y="92.36" transform="matrix(0.9668 0.2556 -0.2556 0.9668 27.6713 -23.2541)" class="st3" width="2.9" height="4.95"/>
			
				<rect id="XMLID_497_" x="106.29" y="93.53" transform="matrix(0.9668 0.2556 -0.2556 0.9668 28.1192 -24.3508)" class="st3" width="2.9" height="4.95"/>
			
				<rect id="XMLID_491_" x="110.74" y="94.71" transform="matrix(0.9668 0.2556 -0.2556 0.9668 28.5671 -25.4476)" class="st3" width="2.9" height="4.95"/>
			
				<rect id="XMLID_504_" x="115.18" y="95.88" transform="matrix(0.9668 0.2556 -0.2556 0.9668 29.015 -26.5444)" class="st3" width="2.9" height="4.95"/>
			
				<rect id="XMLID_502_" x="119.63" y="97.06" transform="matrix(0.9668 0.2556 -0.2556 0.9668 29.463 -27.6412)" class="st3" width="2.9" height="4.95"/>
			
				<rect id="XMLID_500_" x="124.07" y="98.23" transform="matrix(0.9668 0.2556 -0.2556 0.9668 29.9109 -28.738)" class="st3" width="2.9" height="4.95"/>
			
				<rect id="XMLID_499_" x="128.51" y="99.41" transform="matrix(0.9668 0.2556 -0.2556 0.9668 30.3588 -29.8348)" class="st3" width="2.9" height="4.95"/>
			
				<rect id="XMLID_507_" x="132.96" y="100.58" transform="matrix(0.9668 0.2556 -0.2556 0.9668 30.8067 -30.9316)" class="st3" width="2.9" height="4.95"/>
			
				<rect id="XMLID_506_" x="137.4" y="101.76" transform="matrix(0.9668 0.2556 -0.2556 0.9668 31.2546 -32.0284)" class="st3" width="2.9" height="4.95"/>
			
				<rect id="XMLID_505_" x="141.84" y="102.93" transform="matrix(0.9668 0.2556 -0.2556 0.9668 31.7025 -33.1251)" class="st3" width="2.9" height="4.95"/>
		</g>
		<g id="XMLID_509_">
			
				<rect id="XMLID_533_" x="160.37" y="107.83" transform="matrix(0.9668 0.2556 -0.2556 0.9668 33.5703 -37.6988)" class="st3" width="2.9" height="4.95"/>
			
				<rect id="XMLID_529_" x="164.82" y="109.01" transform="matrix(0.9668 0.2556 -0.2556 0.9668 34.0182 -38.7956)" class="st3" width="2.9" height="4.95"/>
			
				<rect id="XMLID_526_" x="169.26" y="110.18" transform="matrix(0.9668 0.2556 -0.2556 0.9668 34.4661 -39.8924)" class="st3" width="2.9" height="4.95"/>
			
				<rect id="XMLID_525_" x="173.7" y="111.36" transform="matrix(0.9668 0.2556 -0.2556 0.9668 34.9141 -40.9892)" class="st3" width="2.9" height="4.95"/>
			
				<rect id="XMLID_540_" x="151.49" y="105.48" transform="matrix(0.9668 0.2556 -0.2556 0.9668 32.6745 -35.5052)" class="st3" width="2.9" height="4.95"/>
			
				<rect id="XMLID_539_" x="155.93" y="106.66" transform="matrix(0.9668 0.2556 -0.2556 0.9668 33.1224 -36.602)" class="st3" width="2.9" height="4.95"/>
			
				<rect id="XMLID_523_" x="178.15" y="112.53" transform="matrix(0.9668 0.2556 -0.2556 0.9668 35.362 -42.086)" class="st3" width="2.9" height="4.95"/>
			
				<rect id="XMLID_522_" x="182.59" y="113.71" transform="matrix(0.9668 0.2556 -0.2556 0.9668 35.8099 -43.1828)" class="st3" width="2.9" height="4.95"/>
			
				<rect id="XMLID_515_" x="187.03" y="114.88" transform="matrix(0.9668 0.2556 -0.2556 0.9668 36.2578 -44.2796)" class="st3" width="2.9" height="4.95"/>
			
				<rect id="XMLID_514_" x="191.48" y="116.06" transform="matrix(0.9668 0.2556 -0.2556 0.9668 36.7057 -45.3763)" class="st3" width="2.9" height="4.95"/>
			
				<rect id="XMLID_513_" x="195.92" y="117.23" transform="matrix(0.9668 0.2556 -0.2556 0.9668 37.1536 -46.4731)" class="st3" width="2.9" height="4.95"/>
			
				<rect id="XMLID_512_" x="200.37" y="118.41" transform="matrix(0.9668 0.2556 -0.2556 0.9668 37.6015 -47.5699)" class="st3" width="2.9" height="4.95"/>
			
				<rect id="XMLID_510_" x="204.81" y="119.58" transform="matrix(0.9668 0.2556 -0.2556 0.9668 38.0494 -48.6667)" class="st3" width="2.9" height="4.95"/>
		</g>
	</g>
	<g id="XMLID_619_">
		<g id="XMLID_567_">
			<g id="XMLID_566_">
				<g id="XMLID_558_">
					<g id="XMLID_552_">
						<path id="XMLID_317_" class="st4" d="M119.06,65.97l-3.38-0.89c-0.39-0.1-0.78,0.13-0.89,0.52c-0.1,0.39,0.13,0.78,0.52,0.89
							l3.38,0.89c0.39,0.1,0.78-0.13,0.89-0.52C119.68,66.47,119.45,66.07,119.06,65.97z"/>
						<path id="XMLID_553_" class="st4" d="M118.25,69.04l-3.38-0.89c-0.39-0.1-0.78,0.13-0.89,0.52c-0.1,0.39,0.13,0.78,0.52,0.89
							l3.38,0.89c0.39,0.1,0.78-0.13,0.89-0.52C118.87,69.54,118.64,69.15,118.25,69.04z"/>
						<path id="XMLID_554_" class="st4" d="M117.44,72.12l-3.38-0.89c-0.39-0.1-0.78,0.13-0.89,0.52c-0.1,0.39,0.13,0.78,0.52,0.89
							l3.38,0.89c0.39,0.1,0.78-0.13,0.89-0.52C118.06,72.62,117.83,72.22,117.44,72.12z"/>
						<path id="XMLID_555_" class="st4" d="M116.63,75.19l-3.38-0.89c-0.39-0.1-0.78,0.13-0.89,0.52s0.13,0.78,0.52,0.89l3.38,0.89
							c0.39,0.1,0.78-0.13,0.89-0.52C117.24,75.69,117.01,75.29,116.63,75.19z"/>
						<path id="XMLID_556_" class="st4" d="M115.81,78.26l-3.38-0.89c-0.39-0.1-0.78,0.13-0.89,0.52c-0.1,0.39,0.13,0.78,0.52,0.89
							l3.38,0.89c0.39,0.1,0.78-0.13,0.89-0.52C116.43,78.76,116.2,78.37,115.81,78.26z"/>
						<path id="XMLID_557_" class="st4" d="M115,81.34l-3.38-0.89c-0.39-0.1-0.78,0.13-0.89,0.52c-0.1,0.39,0.13,0.78,0.52,0.89
							l3.38,0.89c0.39,0.1,0.78-0.13,0.89-0.52C115.62,81.84,115.39,81.44,115,81.34z"/>
					</g>
					<g id="XMLID_559_">
						<path id="XMLID_565_" class="st4" d="M110.18,63.62l-3.38-0.89c-0.39-0.1-0.78,0.13-0.89,0.52c-0.1,0.39,0.13,0.78,0.52,0.89
							l3.38,0.89c0.39,0.1,0.78-0.13,0.89-0.52C110.79,64.12,110.56,63.72,110.18,63.62z"/>
						<path id="XMLID_564_" class="st4" d="M109.36,66.69l-3.38-0.89c-0.39-0.1-0.78,0.13-0.89,0.52c-0.1,0.39,0.13,0.78,0.52,0.89
							l3.38,0.89c0.39,0.1,0.78-0.13,0.89-0.52C109.98,67.19,109.75,66.8,109.36,66.69z"/>
						<path id="XMLID_563_" class="st4" d="M108.55,69.77l-3.38-0.89c-0.39-0.1-0.78,0.13-0.89,0.52c-0.1,0.39,0.13,0.78,0.52,0.89
							l3.38,0.89c0.39,0.1,0.78-0.13,0.89-0.52C109.17,70.27,108.94,69.87,108.55,69.77z"/>
						<path id="XMLID_562_" class="st4" d="M107.74,72.84l-3.38-0.89c-0.39-0.1-0.78,0.13-0.89,0.52s0.13,0.78,0.52,0.89l3.38,0.89
							c0.39,0.1,0.78-0.13,0.89-0.52C108.36,73.34,108.13,72.94,107.74,72.84z"/>
						<path id="XMLID_561_" class="st4" d="M106.93,75.92l-3.38-0.89c-0.39-0.1-0.78,0.13-0.89,0.52c-0.1,0.39,0.13,0.78,0.52,0.89
							l3.38,0.89c0.39,0.1,0.78-0.13,0.89-0.52C107.54,76.41,107.31,76.02,106.93,75.92z"/>
						<path id="XMLID_560_" class="st4" d="M106.11,78.99l-3.38-0.89c-0.39-0.1-0.78,0.13-0.89,0.52c-0.1,0.39,0.13,0.78,0.52,0.89
							l3.38,0.89c0.39,0.1,0.78-0.13,0.89-0.52C106.73,79.49,106.5,79.09,106.11,78.99z"/>
					</g>
				</g>
				
					<rect id="XMLID_494_" x="105.26" y="61.97" transform="matrix(0.9668 0.2556 -0.2556 0.9668 22.269 -25.8829)" class="st5" width="10.92" height="21.53"/>
			</g>
			<g id="XMLID_568_">
				<g id="XMLID_573_">
					<g id="XMLID_595_">
						<path id="XMLID_601_" class="st4" d="M135.93,70.43l-3.38-0.89c-0.39-0.1-0.78,0.13-0.89,0.52c-0.1,0.39,0.13,0.78,0.52,0.89
							l3.38,0.89c0.39,0.1,0.78-0.13,0.89-0.52C136.55,70.93,136.32,70.53,135.93,70.43z"/>
						<path id="XMLID_600_" class="st4" d="M135.12,73.5l-3.38-0.89c-0.39-0.1-0.78,0.13-0.89,0.52c-0.1,0.39,0.13,0.78,0.52,0.89
							l3.38,0.89c0.39,0.1,0.78-0.13,0.89-0.52C135.73,74,135.5,73.61,135.12,73.5z"/>
						<path id="XMLID_599_" class="st4" d="M134.3,76.58l-3.38-0.89c-0.39-0.1-0.78,0.13-0.89,0.52c-0.1,0.39,0.13,0.78,0.52,0.89
							l3.38,0.89c0.39,0.1,0.78-0.13,0.89-0.52S134.69,76.68,134.3,76.58z"/>
						<path id="XMLID_598_" class="st4" d="M133.49,79.65l-3.38-0.89c-0.39-0.1-0.78,0.13-0.89,0.52c-0.1,0.39,0.13,0.78,0.52,0.89
							l3.38,0.89c0.39,0.1,0.78-0.13,0.89-0.52C134.11,80.15,133.88,79.75,133.49,79.65z"/>
						<path id="XMLID_597_" class="st4" d="M132.68,82.72l-3.38-0.89c-0.39-0.1-0.78,0.13-0.89,0.52c-0.1,0.39,0.13,0.78,0.52,0.89
							l3.38,0.89c0.39,0.1,0.78-0.13,0.89-0.52C133.3,83.22,133.07,82.83,132.68,82.72z"/>
						<path id="XMLID_596_" class="st4" d="M131.87,85.8l-3.38-0.89c-0.39-0.1-0.78,0.13-0.89,0.52s0.13,0.78,0.52,0.89l3.38,0.89
							c0.39,0.1,0.78-0.13,0.89-0.52C132.48,86.3,132.25,85.9,131.87,85.8z"/>
					</g>
					<g id="XMLID_577_">
						<path id="XMLID_594_" class="st4" d="M127.04,68.08l-3.38-0.89c-0.39-0.1-0.78,0.13-0.89,0.52c-0.1,0.39,0.13,0.78,0.52,0.89
							l3.38,0.89c0.39,0.1,0.78-0.13,0.89-0.52C127.66,68.58,127.43,68.18,127.04,68.08z"/>
						<path id="XMLID_593_" class="st4" d="M126.23,71.15l-3.38-0.89c-0.39-0.1-0.78,0.13-0.89,0.52c-0.1,0.39,0.13,0.78,0.52,0.89
							l3.38,0.89c0.39,0.1,0.78-0.13,0.89-0.52C126.85,71.65,126.62,71.26,126.23,71.15z"/>
						<path id="XMLID_592_" class="st4" d="M125.42,74.23l-3.38-0.89c-0.39-0.1-0.78,0.13-0.89,0.52c-0.1,0.39,0.13,0.78,0.52,0.89
							l3.38,0.89c0.39,0.1,0.78-0.13,0.89-0.52C126.03,74.73,125.8,74.33,125.42,74.23z"/>
						<path id="XMLID_591_" class="st4" d="M124.6,77.3l-3.38-0.89c-0.39-0.1-0.78,0.13-0.89,0.52c-0.1,0.39,0.13,0.78,0.52,0.89
							l3.38,0.89c0.39,0.1,0.78-0.13,0.89-0.52C125.22,77.8,124.99,77.4,124.6,77.3z"/>
						<path id="XMLID_590_" class="st4" d="M123.79,80.37l-3.38-0.89c-0.39-0.1-0.78,0.13-0.89,0.52c-0.1,0.39,0.13,0.78,0.52,0.89
							l3.38,0.89c0.39,0.1,0.78-0.13,0.89-0.52C124.41,80.87,124.18,80.48,123.79,80.37z"/>
						<path id="XMLID_589_" class="st4" d="M122.98,83.45l-3.38-0.89c-0.39-0.1-0.78,0.13-0.89,0.52s0.13,0.78,0.52,0.89l3.38,0.89
							c0.39,0.1,0.78-0.13,0.89-0.52C123.6,83.95,123.37,83.55,122.98,83.45z"/>
					</g>
				</g>
				
					<rect id="XMLID_569_" x="122.12" y="66.43" transform="matrix(0.9668 0.2556 -0.2556 0.9668 23.969 -30.0457)" class="st5" width="10.92" height="21.53"/>
			</g>
			<g id="XMLID_602_">
				<g id="XMLID_604_">
					<g id="XMLID_612_">
						<path id="XMLID_618_" class="st4" d="M152.79,74.89l-3.38-0.89c-0.39-0.1-0.78,0.13-0.89,0.52c-0.1,0.39,0.13,0.78,0.52,0.89
							l3.38,0.89c0.39,0.1,0.78-0.13,0.89-0.52C153.41,75.39,153.18,74.99,152.79,74.89z"/>
						<path id="XMLID_617_" class="st4" d="M151.98,77.96l-3.38-0.89c-0.39-0.1-0.78,0.13-0.89,0.52c-0.1,0.39,0.13,0.78,0.52,0.89
							l3.38,0.89c0.39,0.1,0.78-0.13,0.89-0.52C152.6,78.46,152.37,78.06,151.98,77.96z"/>
						<path id="XMLID_616_" class="st4" d="M151.17,81.04l-3.38-0.89c-0.39-0.1-0.78,0.13-0.89,0.52c-0.1,0.39,0.13,0.78,0.52,0.89
							l3.38,0.89c0.39,0.1,0.78-0.13,0.89-0.52S151.56,81.14,151.17,81.04z"/>
						<path id="XMLID_615_" class="st4" d="M150.36,84.11l-3.38-0.89c-0.39-0.1-0.78,0.13-0.89,0.52c-0.1,0.39,0.13,0.78,0.52,0.89
							l3.38,0.89c0.39,0.1,0.78-0.13,0.89-0.52S150.74,84.21,150.36,84.11z"/>
						<path id="XMLID_614_" class="st4" d="M149.54,87.18l-3.38-0.89c-0.39-0.1-0.78,0.13-0.89,0.52c-0.1,0.39,0.13,0.78,0.52,0.89
							l3.38,0.89c0.39,0.1,0.78-0.13,0.89-0.52C150.16,87.68,149.93,87.29,149.54,87.18z"/>
						<path id="XMLID_613_" class="st4" d="M148.73,90.26l-3.38-0.89c-0.39-0.1-0.78,0.13-0.89,0.52c-0.1,0.39,0.13,0.78,0.52,0.89
							l3.38,0.89c0.39,0.1,0.78-0.13,0.89-0.52C149.35,90.76,149.12,90.36,148.73,90.26z"/>
					</g>
					<g id="XMLID_605_">
						<path id="XMLID_611_" class="st4" d="M143.91,72.54l-3.38-0.89c-0.39-0.1-0.78,0.13-0.89,0.52c-0.1,0.39,0.13,0.78,0.52,0.89
							l3.38,0.89c0.39,0.1,0.78-0.13,0.89-0.52C144.53,73.04,144.29,72.64,143.91,72.54z"/>
						<path id="XMLID_610_" class="st4" d="M143.09,75.61l-3.38-0.89c-0.39-0.1-0.78,0.13-0.89,0.52c-0.1,0.39,0.13,0.78,0.52,0.89
							l3.38,0.89c0.39,0.1,0.78-0.13,0.89-0.52C143.71,76.11,143.48,75.71,143.09,75.61z"/>
						<path id="XMLID_609_" class="st4" d="M142.28,78.69l-3.38-0.89c-0.39-0.1-0.78,0.13-0.89,0.52c-0.1,0.39,0.13,0.78,0.52,0.89
							l3.38,0.89c0.39,0.1,0.78-0.13,0.89-0.52S142.67,78.79,142.28,78.69z"/>
						<path id="XMLID_608_" class="st4" d="M141.47,81.76l-3.38-0.89c-0.39-0.1-0.78,0.13-0.89,0.52c-0.1,0.39,0.13,0.78,0.52,0.89
							l3.38,0.89c0.39,0.1,0.78-0.13,0.89-0.52S141.86,81.86,141.47,81.76z"/>
						<path id="XMLID_607_" class="st4" d="M140.66,84.83l-3.38-0.89c-0.39-0.1-0.78,0.13-0.89,0.52c-0.1,0.39,0.13,0.78,0.52,0.89
							l3.38,0.89c0.39,0.1,0.78-0.13,0.89-0.52C141.27,85.33,141.04,84.94,140.66,84.83z"/>
						<path id="XMLID_606_" class="st4" d="M139.84,87.91l-3.38-0.89c-0.39-0.1-0.78,0.13-0.89,0.52c-0.1,0.39,0.13,0.78,0.52,0.89
							l3.38,0.89c0.39,0.1,0.78-0.13,0.89-0.52C140.46,88.41,140.23,88.01,139.84,87.91z"/>
					</g>
				</g>
				
					<rect id="XMLID_603_" x="138.99" y="70.89" transform="matrix(0.9668 0.2556 -0.2556 0.9668 25.669 -34.2086)" class="st5" width="10.92" height="21.53"/>
			</g>
		</g>
		<g id="XMLID_620_">
			<g id="XMLID_664_">
				<g id="XMLID_666_">
					<g id="XMLID_674_">
						<path id="XMLID_681_" class="st4" d="M180.91,82.32l-3.38-0.89c-0.39-0.1-0.78,0.13-0.89,0.52c-0.1,0.39,0.13,0.78,0.52,0.89
							l3.38,0.89c0.39,0.1,0.78-0.13,0.89-0.52C181.53,82.82,181.3,82.42,180.91,82.32z"/>
						<path id="XMLID_680_" class="st4" d="M180.1,85.4l-3.38-0.89c-0.39-0.1-0.78,0.13-0.89,0.52c-0.1,0.39,0.13,0.78,0.52,0.89
							l3.38,0.89c0.39,0.1,0.78-0.13,0.89-0.52C180.72,85.9,180.49,85.5,180.1,85.4z"/>
						<path id="XMLID_679_" class="st4" d="M179.29,88.47l-3.38-0.89c-0.39-0.1-0.78,0.13-0.89,0.52s0.13,0.78,0.52,0.89l3.38,0.89
							c0.39,0.1,0.78-0.13,0.89-0.52C179.91,88.97,179.67,88.57,179.29,88.47z"/>
						<path id="XMLID_678_" class="st4" d="M178.47,91.54l-3.38-0.89c-0.39-0.1-0.78,0.13-0.89,0.52c-0.1,0.39,0.13,0.78,0.52,0.89
							l3.38,0.89c0.39,0.1,0.78-0.13,0.89-0.52C179.09,92.04,178.86,91.65,178.47,91.54z"/>
						<path id="XMLID_676_" class="st4" d="M177.66,94.62l-3.38-0.89c-0.39-0.1-0.78,0.13-0.89,0.52c-0.1,0.39,0.13,0.78,0.52,0.89
							l3.38,0.89c0.39,0.1,0.78-0.13,0.89-0.52C178.28,95.12,178.05,94.72,177.66,94.62z"/>
						<path id="XMLID_675_" class="st4" d="M176.85,97.69l-3.38-0.89c-0.39-0.1-0.78,0.13-0.89,0.52c-0.1,0.39,0.13,0.78,0.52,0.89
							l3.38,0.89c0.39,0.1,0.78-0.13,0.89-0.52S177.24,97.79,176.85,97.69z"/>
					</g>
					<g id="XMLID_667_">
						<path id="XMLID_673_" class="st4" d="M172.03,79.97l-3.38-0.89c-0.39-0.1-0.78,0.13-0.89,0.52c-0.1,0.39,0.13,0.78,0.52,0.89
							l3.38,0.89c0.39,0.1,0.78-0.13,0.89-0.52C172.64,80.47,172.41,80.08,172.03,79.97z"/>
						<path id="XMLID_672_" class="st4" d="M171.21,83.05l-3.38-0.89c-0.39-0.1-0.78,0.13-0.89,0.52c-0.1,0.39,0.13,0.78,0.52,0.89
							l3.38,0.89c0.39,0.1,0.78-0.13,0.89-0.52C171.83,83.55,171.6,83.15,171.21,83.05z"/>
						<path id="XMLID_671_" class="st4" d="M170.4,86.12l-3.38-0.89c-0.39-0.1-0.78,0.13-0.89,0.52s0.13,0.78,0.52,0.89l3.38,0.89
							c0.39,0.1,0.78-0.13,0.89-0.52C171.02,86.62,170.79,86.22,170.4,86.12z"/>
						<path id="XMLID_670_" class="st4" d="M169.59,89.19l-3.38-0.89c-0.39-0.1-0.78,0.13-0.89,0.52c-0.1,0.39,0.13,0.78,0.52,0.89
							l3.38,0.89c0.39,0.1,0.78-0.13,0.89-0.52C170.21,89.69,169.97,89.3,169.59,89.19z"/>
						<path id="XMLID_669_" class="st4" d="M168.77,92.27l-3.38-0.89c-0.39-0.1-0.78,0.13-0.89,0.52c-0.1,0.39,0.13,0.78,0.52,0.89
							l3.38,0.89c0.39,0.1,0.78-0.13,0.89-0.52C169.39,92.77,169.16,92.37,168.77,92.27z"/>
						<path id="XMLID_668_" class="st4" d="M167.96,95.34l-3.38-0.89c-0.39-0.1-0.78,0.13-0.89,0.52c-0.1,0.39,0.13,0.78,0.52,0.89
							l3.38,0.89c0.39,0.1,0.78-0.13,0.89-0.52C168.58,95.84,168.35,95.44,167.96,95.34z"/>
					</g>
				</g>
				
					<rect id="XMLID_665_" x="167.1" y="78.32" transform="matrix(0.9668 0.2556 -0.2556 0.9668 28.5033 -41.1487)" class="st5" width="10.92" height="21.53"/>
			</g>
			<g id="XMLID_638_">
				<g id="XMLID_640_">
					<g id="XMLID_653_">
						<path id="XMLID_663_" class="st4" d="M197.78,86.78l-3.38-0.89c-0.39-0.1-0.78,0.13-0.89,0.52c-0.1,0.39,0.13,0.78,0.52,0.89
							l3.38,0.89c0.39,0.1,0.78-0.13,0.89-0.52C198.4,87.28,198.17,86.88,197.78,86.78z"/>
						<path id="XMLID_662_" class="st4" d="M196.97,89.86l-3.38-0.89c-0.39-0.1-0.78,0.13-0.89,0.52c-0.1,0.39,0.13,0.78,0.52,0.89
							l3.38,0.89c0.39,0.1,0.78-0.13,0.89-0.52C197.58,90.35,197.35,89.96,196.97,89.86z"/>
						<path id="XMLID_661_" class="st4" d="M196.15,92.93l-3.38-0.89c-0.39-0.1-0.78,0.13-0.89,0.52s0.13,0.78,0.52,0.89l3.38,0.89
							c0.39,0.1,0.78-0.13,0.89-0.52C196.77,93.43,196.54,93.03,196.15,92.93z"/>
						<path id="XMLID_660_" class="st4" d="M195.34,96l-3.38-0.89c-0.39-0.1-0.78,0.13-0.89,0.52c-0.1,0.39,0.13,0.78,0.52,0.89
							l3.38,0.89c0.39,0.1,0.78-0.13,0.89-0.52C195.96,96.5,195.73,96.1,195.34,96z"/>
						<path id="XMLID_659_" class="st4" d="M194.53,99.08l-3.38-0.89c-0.39-0.1-0.78,0.13-0.89,0.52c-0.1,0.39,0.13,0.78,0.52,0.89
							l3.38,0.89c0.39,0.1,0.78-0.13,0.89-0.52C195.15,99.57,194.91,99.18,194.53,99.08z"/>
						<path id="XMLID_656_" class="st4" d="M193.71,102.15l-3.38-0.89c-0.39-0.1-0.78,0.13-0.89,0.52c-0.1,0.39,0.13,0.78,0.52,0.89
							l3.38,0.89c0.39,0.1,0.78-0.13,0.89-0.52C194.33,102.65,194.1,102.25,193.71,102.15z"/>
					</g>
					<g id="XMLID_641_">
						<path id="XMLID_652_" class="st4" d="M188.89,84.43l-3.38-0.89c-0.39-0.1-0.78,0.13-0.89,0.52c-0.1,0.39,0.13,0.78,0.52,0.89
							l3.38,0.89c0.39,0.1,0.78-0.13,0.89-0.52C189.51,84.93,189.28,84.53,188.89,84.43z"/>
						<path id="XMLID_651_" class="st4" d="M188.08,87.51l-3.38-0.89c-0.39-0.1-0.78,0.13-0.89,0.52c-0.1,0.39,0.13,0.78,0.52,0.89
							l3.38,0.89c0.39,0.1,0.78-0.13,0.89-0.52C188.7,88,188.47,87.61,188.08,87.51z"/>
						<path id="XMLID_650_" class="st4" d="M187.27,90.58l-3.38-0.89c-0.39-0.1-0.78,0.13-0.89,0.52s0.13,0.78,0.52,0.89l3.38,0.89
							c0.39,0.1,0.78-0.13,0.89-0.52C187.88,91.08,187.65,90.68,187.27,90.58z"/>
						<path id="XMLID_649_" class="st4" d="M186.45,93.65l-3.38-0.89c-0.39-0.1-0.78,0.13-0.89,0.52c-0.1,0.39,0.13,0.78,0.52,0.89
							l3.38,0.89c0.39,0.1,0.78-0.13,0.89-0.52C187.07,94.15,186.84,93.76,186.45,93.65z"/>
						<path id="XMLID_648_" class="st4" d="M185.64,96.73l-3.38-0.89c-0.39-0.1-0.78,0.13-0.89,0.52s0.13,0.78,0.52,0.89l3.38,0.89
							c0.39,0.1,0.78-0.13,0.89-0.52C186.26,97.23,186.03,96.83,185.64,96.73z"/>
						<path id="XMLID_646_" class="st4" d="M184.83,99.8l-3.38-0.89c-0.39-0.1-0.78,0.13-0.89,0.52c-0.1,0.39,0.13,0.78,0.52,0.89
							l3.38,0.89c0.39,0.1,0.78-0.13,0.89-0.52C185.45,100.3,185.21,99.9,184.83,99.8z"/>
					</g>
				</g>
				
					<rect id="XMLID_639_" x="183.97" y="82.78" transform="matrix(0.9668 0.2556 -0.2556 0.9668 30.2033 -45.3115)" class="st5" width="10.92" height="21.53"/>
			</g>
			<g id="XMLID_621_">
				<g id="XMLID_623_">
					<g id="XMLID_631_">
						<path id="XMLID_637_" class="st4" d="M214.64,91.24l-3.38-0.89c-0.39-0.1-0.78,0.13-0.89,0.52c-0.1,0.39,0.13,0.78,0.52,0.89
							l3.38,0.89c0.39,0.1,0.78-0.13,0.89-0.52C215.26,91.74,215.03,91.34,214.64,91.24z"/>
						<path id="XMLID_636_" class="st4" d="M213.83,94.31l-3.38-0.89c-0.39-0.1-0.78,0.13-0.89,0.52c-0.1,0.39,0.13,0.78,0.52,0.89
							l3.38,0.89c0.39,0.1,0.78-0.13,0.89-0.52S214.22,94.42,213.83,94.31z"/>
						<path id="XMLID_635_" class="st4" d="M213.02,97.39l-3.38-0.89c-0.39-0.1-0.78,0.13-0.89,0.52c-0.1,0.39,0.13,0.78,0.52,0.89
							l3.38,0.89c0.39,0.1,0.78-0.13,0.89-0.52C213.64,97.89,213.41,97.49,213.02,97.39z"/>
						<path id="XMLID_634_" class="st4" d="M212.21,100.46l-3.38-0.89c-0.39-0.1-0.78,0.13-0.89,0.52c-0.1,0.39,0.13,0.78,0.52,0.89
							l3.38,0.89c0.39,0.1,0.78-0.13,0.89-0.52C212.82,100.96,212.59,100.56,212.21,100.46z"/>
						<path id="XMLID_633_" class="st4" d="M211.39,103.53l-3.38-0.89c-0.39-0.1-0.78,0.13-0.89,0.52c-0.1,0.39,0.13,0.78,0.52,0.89
							l3.38,0.89c0.39,0.1,0.78-0.13,0.89-0.52C212.01,104.03,211.78,103.64,211.39,103.53z"/>
						<path id="XMLID_632_" class="st4" d="M210.58,106.61l-3.38-0.89c-0.39-0.1-0.78,0.13-0.89,0.52s0.13,0.78,0.52,0.89l3.38,0.89
							c0.39,0.1,0.78-0.13,0.89-0.52C211.2,107.11,210.97,106.71,210.58,106.61z"/>
					</g>
					<g id="XMLID_624_">
						<path id="XMLID_630_" class="st4" d="M205.76,88.89L202.38,88c-0.39-0.1-0.78,0.13-0.89,0.52c-0.1,0.39,0.13,0.78,0.52,0.89
							l3.38,0.89c0.39,0.1,0.78-0.13,0.89-0.52C206.37,89.39,206.14,88.99,205.76,88.89z"/>
						<path id="XMLID_629_" class="st4" d="M204.94,91.96l-3.38-0.89c-0.39-0.1-0.78,0.13-0.89,0.52c-0.1,0.39,0.13,0.78,0.52,0.89
							l3.38,0.89c0.39,0.1,0.78-0.13,0.89-0.52S205.33,92.07,204.94,91.96z"/>
						<path id="XMLID_628_" class="st4" d="M204.13,95.04l-3.38-0.89c-0.39-0.1-0.78,0.13-0.89,0.52c-0.1,0.39,0.13,0.78,0.52,0.89
							l3.38,0.89c0.39,0.1,0.78-0.13,0.89-0.52C204.75,95.54,204.52,95.14,204.13,95.04z"/>
						<path id="XMLID_627_" class="st4" d="M203.32,98.11l-3.38-0.89c-0.39-0.1-0.78,0.13-0.89,0.52c-0.1,0.39,0.13,0.78,0.52,0.89
							l3.38,0.89c0.39,0.1,0.78-0.13,0.89-0.52C203.94,98.61,203.71,98.21,203.32,98.11z"/>
						<path id="XMLID_626_" class="st4" d="M202.51,101.19l-3.38-0.89c-0.39-0.1-0.78,0.13-0.89,0.52c-0.1,0.39,0.13,0.78,0.52,0.89
							l3.38,0.89c0.39,0.1,0.78-0.13,0.89-0.52C203.12,101.68,202.89,101.29,202.51,101.19z"/>
						<path id="XMLID_625_" class="st4" d="M201.69,104.26l-3.38-0.89c-0.39-0.1-0.78,0.13-0.89,0.52s0.13,0.78,0.52,0.89l3.38,0.89
							c0.39,0.1,0.78-0.13,0.89-0.52C202.31,104.76,202.08,104.36,201.69,104.26z"/>
					</g>
				</g>
				
					<rect id="XMLID_622_" x="200.84" y="87.24" transform="matrix(0.9668 0.2556 -0.2556 0.9668 31.9033 -49.4743)" class="st5" width="10.92" height="21.53"/>
			</g>
		</g>
	</g>
	<path id="XMLID_683_" class="st6" d="M96.8,85.33c-0.14,0.85,0.46,1.65,1.29,1.86l37.01,9.79c0.84,0.22,1.78-0.18,2.08-1
		c0.33-0.92-0.2-1.9-1.12-2.15l-37.21-9.84C97.91,83.75,96.96,84.35,96.8,85.33z"/>
	<path id="XMLID_686_" class="st6" d="M143.91,97.78c-0.14,0.85,0.46,1.65,1.29,1.86l11.29,2.98c0.84,0.22,1.78-0.18,2.08-1
		c0.33-0.92-0.2-1.9-1.12-2.15l-11.49-3.04C145.02,96.2,144.07,96.81,143.91,97.78z"/>
</g>
<path class="st7" d="M190.42,89.4c-1.26-2.58,0.79-6.13,3.66-6.33c-1.08-1.31-1.42-3.19-0.87-4.79c0.55-1.6,1.98-2.87,3.64-3.24
	c-1.36-1.25-2.49-2.91-2.52-4.75c-0.04-1.84,1.35-3.78,3.19-3.83c-1.7-2.14-0.52-5.42,1.4-7.36c1.19-1.21,2.72-2.18,4.41-2.33
	s3.53,0.69,4.19,2.26c-0.08-1.73,1.52-3.02,2.98-3.96c2.56-1.65,5.82-3.23,8.5-1.78c2.09,1.14,2.9,3.68,3.53,5.97
	c2.66-1.54,6.03-2.29,8.83-1c2.79,1.29,4.42,5.12,2.68,7.66c-0.8,1.16-2.11,1.86-3.41,2.4c1.13,1.02,1.15,2.87,0.44,4.21
	c-0.71,1.34-1.99,2.29-3.26,3.11c-1.76,1.13-4.06,2.14-5.84,1.04c-0.88,2.56-3.15,4.59-5.79,5.18c-0.42,0.09-0.89,0.15-1.28-0.05
	c-0.33-0.17-0.55-0.5-0.75-0.82c-0.9-1.44-1.7-2.95-2.4-4.5c-0.65,2.95-3.95,5.03-6.9,4.34c-1.06-0.25-2.09-0.8-3.17-0.63
	c-1.24,0.19-2.17,1.35-2.41,2.58c-0.24,1.23,0.09,2.51,0.58,3.66c-1.67-0.97-3.93-0.8-5.45,0.4c-1.52,1.2-2.19,3.36-1.63,5.21
	c-0.5-1.42-2.81-1.65-3.58-0.37"/>
<g>
	<path class="st0" d="M173.34,96.44l2.37-1.34l1.05-2.13l-0.61-2.38c0,0,0.51-2.79,0.86-3.1c0.35-0.3,0.96-1.92,1.55-2.75
		c0.6-0.82,0.51-1.93,0.62-2.82c0.11-0.89-0.68-2.15-0.38-2.58c0.3-0.43-1.19,4.15-1.19,4.15l-2.19,1.92l-1.49,1.4l-1.24,1.93
		l-0.4,1.83L171.56,92l-1.63,0.06l-0.8-0.84l0.23-1.03l0.23-1.03l-0.15-0.74l-0.79-1.35l-1.11,1.63l-0.28,1.27l-1.46,1.35
		c0,0-0.84,0.78-0.72,0.99c0.12,0.21-0.19,0.74-0.19,0.74s-1.7-0.37-1.79-0.39c-0.09-0.02-3.17,1.07-3.17,1.07
		S169.42,96.47,173.34,96.44z"/>
	<path class="st8" d="M172.33,95.94l1.22-0.69l0.54-1.09l-0.31-1.22c0,0,0.26-1.43,0.44-1.59c0.18-0.15,0.49-0.99,0.8-1.41
		c0.31-0.42,0.26-0.99,0.32-1.45c0.06-0.46-0.35-1.1-0.2-1.33c0.15-0.22-0.61,2.13-0.61,2.13l-1.13,0.99L172.63,91l-0.63,0.99
		l-0.21,0.94l-0.37,0.73l-0.84,0.03l-0.41-0.43l0.12-0.53l0.12-0.53l-0.08-0.38l-0.4-0.69l-0.57,0.84l-0.14,0.65l-0.75,0.69
		c0,0-0.43,0.4-0.37,0.51c0.06,0.11-0.1,0.38-0.1,0.38s-0.87-0.19-0.92-0.2c-0.05-0.01-1.63,0.55-1.63,0.55
		S170.32,95.95,172.33,95.94z"/>
</g>
</svg>
