<?xml version="1.0" standalone="no"?>
<!DOCTYPE svg PUBLIC "-//W3C//DTD SVG 20010904//EN"
 "http://www.w3.org/TR/2001/REC-SVG-20010904/DTD/svg10.dtd">
<svg version="1.0" xmlns="http://www.w3.org/2000/svg"
 width="512.000000pt" height="512.000000pt" viewBox="0 0 512.000000 512.000000"
 preserveAspectRatio="xMidYMid meet">
<metadata>
Created by potrace 1.14, written by Peter Selinger 2001-2017
</metadata>
<g transform="translate(0.000000,512.000000) scale(0.100000,-0.100000)"
fill="#000000" stroke="none">
<path d="M2415 5093 c-16 -3 -33 -10 -37 -16 -5 -8 -8 -8 -8 -1 0 11 -19 11
-61 0 -14 -4 -41 -9 -60 -11 -19 -2 -34 -4 -34 -5 0 -1 -11 -3 -25 -6 -81 -13
-280 -88 -280 -106 0 -4 -7 -8 -15 -8 -8 0 -15 -5 -15 -10 0 -6 -3 -9 -7 -8
-8 3 -32 -17 -90 -69 -13 -13 -21 -23 -17 -23 3 0 -4 -9 -17 -20 -13 -10 -20
-19 -15 -20 5 0 -1 -9 -14 -20 -13 -11 -19 -20 -15 -20 4 0 0 -9 -10 -20 -10
-11 -14 -20 -10 -20 4 0 1 -8 -8 -18 -10 -10 -14 -22 -10 -25 3 -4 0 -7 -8 -7
-11 0 -11 -2 1 -10 8 -5 10 -10 4 -10 -14 0 -46 -128 -45 -182 0 -10 -6 -18
-12 -18 -8 0 -7 -3 2 -9 9 -6 10 -11 2 -15 -6 -4 -9 -12 -5 -17 3 -5 0 -17 -8
-26 -9 -12 -9 -15 0 -9 13 8 13 -19 -1 -41 -5 -8 -3 -13 4 -13 10 0 10 -3 1
-12 -7 -7 -8 -17 -1 -30 7 -12 6 -18 -1 -18 -7 0 -8 -6 -1 -18 6 -11 6 -24 1
-32 -5 -9 -5 -19 2 -27 6 -8 6 -13 1 -13 -5 0 -10 -7 -10 -15 0 -8 4 -15 9
-15 5 0 4 -9 -2 -19 -6 -12 -6 -22 -1 -25 9 -6 -8 -66 -19 -66 -8 0 -4 -140 5
-148 5 -4 5 -1 0 7 -6 10 -4 12 4 7 9 -6 9 -11 0 -22 -9 -11 -9 -14 0 -14 7 0
11 -6 10 -12 -1 -7 1 -20 4 -28 4 -8 9 -26 11 -40 3 -14 5 -25 6 -25 6 0 11
-54 12 -127 0 -49 4 -88 9 -88 5 0 9 -7 9 -16 0 -10 6 -14 15 -10 8 3 15 1 15
-4 0 -5 13 -5 30 0 17 5 30 6 30 3 0 -3 6 0 14 6 17 14 35 -5 38 -43 1 -14 6
-26 11 -26 4 0 6 -4 2 -9 -3 -5 0 -13 6 -16 5 -4 8 -13 5 -21 -3 -8 -1 -14 5
-14 6 0 9 -7 5 -15 -3 -8 -1 -15 4 -15 7 0 21 -27 25 -50 3 -15 69 -141 76
-146 5 -3 6 -11 3 -17 -4 -7 -4 -9 1 -5 5 5 20 -9 34 -30 34 -50 143 -152 154
-145 6 3 8 2 5 -3 -4 -8 28 -47 35 -42 1 1 22 -11 47 -28 80 -54 203 -108 265
-117 12 -2 25 -6 30 -8 16 -9 96 -3 145 10 25 7 50 13 55 14 6 1 17 7 25 12 8
5 24 11 35 12 11 2 22 8 23 13 2 6 9 10 16 10 8 0 25 9 38 20 14 10 28 17 31
13 4 -3 9 2 13 11 3 9 10 13 15 10 5 -3 12 2 15 10 3 9 11 16 18 16 6 0 24 11
40 25 16 14 33 25 38 25 5 0 6 5 3 10 -3 6 -2 10 2 10 10 0 78 65 130 124 18
20 30 36 27 36 -3 0 4 13 15 29 12 16 21 34 21 40 0 6 4 11 9 11 9 0 24 38 22
53 -1 4 6 10 14 13 8 3 12 10 9 15 -3 6 0 16 6 24 6 8 9 18 6 23 -3 5 2 18 12
28 17 20 19 26 25 64 2 11 6 23 10 26 4 4 7 18 7 30 0 21 3 22 26 14 14 -6 29
-8 34 -5 5 3 10 1 12 -5 2 -6 14 -4 31 5 19 9 25 10 20 2 -4 -7 0 -7 10 2 9 7
14 17 11 22 -3 5 -1 9 4 9 13 0 10 83 -3 93 -7 5 -6 9 1 15 6 4 10 24 10 45
-1 20 2 37 7 37 5 0 7 7 4 15 -4 8 -2 17 4 21 6 3 8 11 6 17 -2 7 0 20 5 30
12 23 19 53 22 92 1 17 6 36 10 43 4 7 2 12 -4 12 -6 0 -8 5 -3 13 11 18 12
37 2 37 -5 0 -9 5 -9 11 0 6 -9 23 -19 38 -12 17 -16 32 -11 41 4 7 4 24 0 36
-6 15 -5 26 1 30 6 4 6 11 -2 20 -9 11 -8 14 2 14 9 0 10 3 4 8 -5 4 -11 34
-11 67 -2 67 -11 190 -14 190 -2 0 -6 34 -13 98 -1 9 -5 17 -9 17 -4 0 -8 11
-8 23 0 13 -3 27 -7 31 -5 4 -8 11 -8 14 -2 19 -30 82 -37 82 -4 0 -8 7 -8 15
0 8 -5 15 -11 15 -5 0 -8 4 -5 9 7 11 -115 141 -132 141 -6 0 -12 4 -12 8 0 5
-20 19 -45 32 -25 13 -45 26 -45 30 0 4 -6 7 -14 7 -8 0 -30 7 -50 17 -20 10
-46 19 -56 22 -11 2 -28 6 -37 9 -57 15 -112 27 -138 30 -16 2 -30 4 -30 6 0
1 -16 3 -36 4 -19 1 -41 5 -48 10 -15 8 -268 15 -316 8z"/>
<path d="M2355 2577 c-9 -4 -12 -13 -9 -19 4 -6 0 -14 -7 -19 -8 -5 -9 -9 -3
-9 6 0 10 -33 9 -90 -1 -53 3 -94 9 -99 14 -12 78 -17 92 -8 6 3 14 4 17 1 4
-5 204 -8 225 -3 4 1 10 1 15 0 7 -1 9 7 11 49 1 14 5 31 9 38 5 6 4 12 -1 12
-5 0 -9 7 -9 15 0 8 5 15 10 15 5 0 5 6 -2 13 -8 10 -7 17 1 25 7 7 8 12 2 12
-6 0 -11 7 -11 15 0 8 4 15 8 15 12 0 -2 40 -15 41 -62 6 -339 3 -351 -4z"/>
<path d="M1876 2532 c-2 -1 -25 -4 -52 -6 -53 -5 -96 -11 -189 -27 -33 -5 -73
-12 -90 -14 -16 -2 -31 -4 -32 -6 -2 -1 -6 -2 -10 -3 -19 -4 -89 -18 -93 -18
-3 0 -15 -4 -28 -9 -12 -5 -33 -11 -45 -13 -12 -2 -41 -11 -64 -19 -22 -9 -44
-13 -47 -10 -3 4 -6 0 -6 -7 0 -7 -3 -10 -7 -7 -3 4 -12 2 -20 -4 -7 -6 -13
-8 -13 -4 0 4 -6 3 -12 -2 -7 -5 -34 -17 -61 -27 -26 -10 -45 -22 -42 -27 4
-5 0 -6 -8 -3 -8 3 -23 -3 -32 -13 -10 -10 -19 -16 -19 -14 -2 9 -46 -11 -46
-20 0 -6 -5 -7 -10 -4 -6 3 -10 1 -10 -4 0 -6 -7 -11 -15 -11 -8 0 -15 -4 -15
-10 0 -5 -11 -12 -25 -16 -14 -3 -22 -10 -19 -15 3 -5 0 -9 -6 -9 -15 0 -140
-124 -140 -139 0 -6 -8 -11 -17 -12 -10 0 -13 -3 -6 -5 7 -3 2 -14 -13 -31
-13 -14 -21 -29 -19 -34 3 -4 1 -10 -5 -14 -6 -4 -8 -11 -5 -16 4 -5 1 -9 -4
-9 -6 0 -11 -4 -11 -10 0 -5 -13 -38 -30 -72 -16 -35 -30 -67 -31 -73 -1 -5
-8 -19 -15 -30 -8 -11 -14 -28 -14 -38 0 -9 -7 -20 -15 -23 -8 -4 -12 -10 -10
-15 3 -5 -1 -19 -10 -32 -8 -13 -12 -27 -8 -30 3 -4 1 -7 -6 -7 -7 0 -10 -4
-6 -9 3 -5 1 -12 -5 -16 -6 -4 -8 -11 -5 -16 4 -5 1 -9 -4 -9 -6 0 -11 -6 -11
-14 0 -7 -10 -35 -22 -62 -22 -49 -24 -55 -27 -75 0 -5 -6 -7 -13 -3 -6 4 -8
3 -4 -4 3 -6 2 -13 -4 -17 -6 -4 -8 -10 -5 -15 3 -5 -1 -24 -9 -42 -8 -18 -21
-49 -29 -68 -9 -19 -19 -47 -22 -63 -4 -15 -11 -30 -16 -33 -5 -3 -9 -16 -9
-29 0 -13 -5 -27 -11 -30 -6 -4 -8 -13 -5 -21 3 -8 1 -14 -5 -14 -6 0 -7 -4
-4 -10 3 -5 2 -10 -4 -10 -5 0 -8 -9 -6 -20 2 -11 0 -20 -4 -20 -9 0 -25 -54
-24 -77 0 -7 -4 -13 -10 -13 -6 0 -8 -3 -5 -6 5 -5 -8 -55 -29 -114 -3 -8 -7
-26 -9 -40 -2 -14 -8 -45 -14 -70 -11 -45 -15 -162 -7 -190 2 -8 7 -27 12 -42
4 -16 11 -28 16 -28 5 0 9 -7 9 -15 0 -8 5 -15 11 -15 5 0 7 -5 4 -10 -3 -6 1
-13 9 -16 9 -3 16 -12 16 -20 0 -8 4 -14 8 -14 5 0 15 -11 22 -25 7 -13 16
-22 20 -20 3 2 14 -7 24 -20 10 -13 36 -36 59 -52 23 -15 48 -34 55 -41 8 -7
18 -10 23 -7 5 4 9 2 9 -3 0 -8 124 -70 152 -76 7 -2 24 -8 38 -13 14 -6 28
-9 33 -6 4 2 7 0 7 -5 0 -5 6 -9 13 -10 32 -2 64 -9 73 -15 6 -3 29 -9 50 -12
59 -8 68 -10 82 -18 7 -5 12 -3 12 4 0 8 4 8 13 2 6 -6 20 -9 30 -8 9 2 17 -1
17 -6 0 -6 8 -5 20 1 11 6 20 7 20 2 0 -5 21 -8 48 -8 26 1 50 -3 54 -9 5 -6
8 -5 8 3 0 8 5 10 12 6 18 -11 48 -12 54 -2 3 4 9 6 14 3 5 -3 3 9 -4 27 -7
18 -11 39 -9 46 3 7 -1 20 -9 29 -11 14 -11 16 2 8 13 -8 13 -6 1 8 -7 9 -11
23 -8 31 3 8 3 17 -1 20 -7 7 -10 24 -18 81 -10 75 -11 80 -17 100 -7 22 -15
62 -22 115 -9 58 -10 64 -19 79 -7 11 -6 12 5 6 11 -7 12 -6 2 6 -6 8 -14 32
-17 54 -2 22 -9 64 -15 94 -6 29 -8 57 -5 62 3 5 0 9 -5 9 -6 0 -10 10 -10 23
0 12 -2 36 -6 52 -4 17 -7 38 -7 48 0 9 -5 17 -11 17 -7 0 -6 4 3 10 8 5 10
10 5 10 -6 0 -12 10 -13 23 -6 75 -10 92 -22 89 -11 -2 -11 0 -1 11 9 12 9 16
-1 20 -11 4 -11 6 0 6 10 1 10 6 2 22 -7 11 -9 27 -6 35 3 8 1 14 -3 14 -5 0
-8 11 -6 25 1 14 -2 28 -6 31 -5 3 -8 15 -8 27 1 12 -2 33 -6 47 -3 14 -8 39
-10 55 -1 17 -4 30 -5 30 -1 0 -3 14 -5 30 -1 17 -3 30 -4 30 -5 0 -14 62 -12
81 1 7 33 11 96 10 52 -1 95 2 95 6 0 4 13 3 29 -2 16 -4 31 -6 34 -4 10 10
77 10 77 0 0 -6 4 -5 9 3 7 12 13 12 24 3 7 -7 17 -9 21 -5 3 4 80 8 169 9
385 6 576 12 588 20 8 5 10 3 4 -5 -6 -10 -3 -11 12 -2 14 7 23 7 30 0 8 -8
13 -7 17 0 5 8 13 8 27 1 12 -7 26 -7 37 -2 9 5 28 8 42 6 14 -1 20 -1 14 2
-7 3 -10 14 -7 24 3 12 0 20 -6 20 -7 0 -9 5 -6 10 3 6 2 10 -4 10 -6 0 -8 7
-5 15 4 8 2 21 -4 28 -6 7 -13 24 -15 37 -2 14 -7 33 -10 43 -4 9 -10 25 -14
35 -3 9 -8 26 -10 37 -2 11 -6 27 -10 35 -3 8 -8 24 -10 35 -1 11 -7 29 -12
40 -15 36 -31 91 -31 109 0 10 -5 14 -12 10 -6 -4 -8 -3 -5 3 3 5 -1 32 -9 59
-9 27 -17 56 -19 64 -2 8 -4 15 -5 15 -1 0 -3 11 -6 24 -2 14 -9 30 -14 36 -5
7 -7 15 -3 18 3 4 0 13 -6 21 -7 8 -10 20 -6 26 3 5 1 10 -5 10 -7 0 -10 7 -6
15 3 8 1 15 -5 15 -6 0 -9 6 -6 13 2 6 -2 24 -10 40 -7 15 -12 27 -9 27 2 0
-4 21 -13 48 l-17 47 -48 0 c-26 0 -49 -1 -50 -3z"/>
<path d="M3123 2527 c-4 -7 -9 -23 -11 -37 -2 -13 -7 -27 -11 -30 -5 -3 -7
-13 -5 -22 1 -10 -2 -18 -7 -18 -4 0 -6 -7 -3 -15 4 -8 1 -15 -5 -15 -6 0 -10
-3 -9 -7 4 -18 -15 -83 -24 -83 -5 0 -7 -4 -3 -10 3 -5 -1 -24 -8 -42 -8 -18
-14 -35 -14 -38 -2 -20 -27 -97 -34 -106 -5 -6 -6 -14 -2 -17 3 -4 0 -13 -7
-22 -7 -8 -9 -15 -5 -15 4 0 2 -7 -5 -15 -7 -8 -10 -15 -7 -15 3 0 -1 -16 -9
-35 -8 -19 -12 -35 -10 -35 3 0 -1 -15 -9 -32 -7 -18 -14 -36 -14 -40 -1 -5
-2 -10 -2 -13 -1 -3 -3 -9 -4 -15 -1 -5 -4 -12 -5 -15 -1 -3 -4 -9 -5 -15 -1
-5 -3 -11 -5 -12 -1 -2 -4 -12 -6 -23 -6 -24 -9 -35 -17 -55 -6 -16 -30 -101
-31 -112 -1 -3 -4 -10 -8 -14 -15 -14 -9 -46 7 -41 8 4 17 2 21 -4 4 -7 10 -6
18 0 7 6 15 8 19 5 8 -9 77 -11 77 -2 0 3 13 3 28 -2 16 -4 42 -6 58 -3 16 2
34 4 39 4 77 -4 349 -12 445 -14 69 -1 131 -7 139 -11 9 -6 12 -5 8 1 -6 10
149 10 159 0 3 -3 16 -2 29 3 13 5 25 6 28 4 3 -3 57 -6 121 -6 l117 -1 -3
-44 c-1 -24 -5 -46 -9 -48 -3 -3 -4 -16 -1 -30 2 -14 0 -25 -6 -25 -6 0 -8 -8
-5 -19 3 -10 0 -22 -7 -26 -8 -5 -8 -10 1 -21 7 -9 8 -14 1 -14 -6 0 -10 -8
-10 -17 0 -10 -3 -31 -7 -48 -4 -16 -8 -45 -9 -62 0 -18 -5 -33 -10 -33 -5 0
-6 -3 -3 -6 3 -4 2 -16 -4 -27 -9 -15 -8 -18 3 -11 10 6 11 5 2 -7 -6 -8 -10
-22 -9 -31 2 -10 0 -18 -4 -18 -4 0 -8 -10 -8 -22 -3 -49 -8 -68 -18 -68 -5 0
-3 -5 5 -10 8 -5 10 -10 5 -10 -6 0 -11 -12 -12 -27 -1 -27 -10 -68 -13 -68
-1 0 -3 -13 -3 -30 -1 -16 -5 -34 -8 -40 -3 -5 -6 -25 -8 -44 -1 -19 -6 -40
-11 -46 -5 -6 -5 -17 0 -25 5 -8 5 -19 -1 -26 -9 -11 -18 -56 -21 -101 -1 -13
-5 -23 -9 -23 -4 0 -5 -10 -1 -22 4 -15 2 -19 -7 -13 -10 6 -11 3 -2 -12 6
-11 7 -23 4 -27 -4 -4 -8 -14 -10 -24 -2 -9 -5 -30 -8 -47 -3 -16 -8 -43 -11
-60 -6 -42 -12 -70 -14 -70 -1 0 -3 -18 -6 -40 -2 -22 -7 -47 -11 -55 -3 -8
-7 -31 -9 -50 -1 -19 -3 -40 -4 -45 -7 -33 1 -42 33 -38 17 2 60 5 94 6 35 1
63 4 63 7 0 3 28 6 61 7 34 2 69 8 77 15 13 11 14 11 8 0 -7 -12 -4 -12 14 -2
12 6 28 9 36 6 8 -3 14 -2 14 3 0 4 6 8 13 8 21 1 66 11 77 18 6 4 22 9 37 11
14 3 39 12 54 20 16 8 29 12 29 8 0 -4 6 -1 13 5 8 6 17 8 20 4 4 -3 7 -1 7 5
0 7 3 11 8 10 4 -1 27 9 52 21 25 13 47 23 49 22 2 -2 8 4 13 13 5 9 13 16 19
16 5 0 15 5 22 10 7 6 24 20 38 33 14 12 36 28 47 36 12 8 19 18 16 23 -3 4 2
8 11 8 11 0 15 5 11 16 -3 8 -2 13 2 11 4 -3 13 1 20 9 7 8 10 14 7 14 -3 0 3
10 15 22 11 12 20 27 20 34 0 6 7 17 15 24 8 7 13 16 10 20 -3 5 -1 11 4 15
10 6 11 11 12 90 1 44 -7 130 -11 130 -3 0 -12 42 -13 68 -1 15 -5 27 -8 27
-3 0 -6 10 -5 22 1 13 -2 26 -6 29 -7 5 -12 20 -22 66 -1 7 -5 15 -8 19 -4 3
-4 12 -2 19 3 7 0 16 -5 20 -6 3 -9 11 -6 16 4 5 1 9 -5 9 -6 0 -9 3 -7 7 3 5
0 19 -6 33 -5 14 -12 34 -14 44 -2 11 -8 25 -14 33 -6 7 -8 13 -5 13 4 0 0 10
-8 21 -8 12 -12 28 -9 35 3 8 0 14 -6 14 -6 0 -10 3 -9 8 0 4 -2 16 -6 27 -4
11 -13 34 -19 50 -7 17 -11 33 -9 38 1 4 -3 7 -9 7 -5 0 -7 5 -4 10 3 6 2 10
-4 10 -5 0 -8 9 -6 20 2 11 0 20 -6 20 -5 0 -9 7 -9 15 0 8 -4 15 -8 15 -5 0
-9 7 -10 15 -1 8 -3 22 -4 30 -1 8 -6 15 -11 15 -6 0 -8 3 -4 6 3 4 -5 27 -19
51 -13 24 -20 42 -15 39 4 -3 -5 19 -20 50 -16 31 -31 64 -32 74 -2 10 -8 24
-13 32 -6 7 -19 34 -30 60 -10 27 -22 48 -26 48 -4 0 -5 7 -2 15 4 8 1 15 -6
15 -6 0 -8 5 -5 10 3 6 1 10 -4 10 -6 0 -10 3 -10 8 3 19 -2 33 -11 27 -5 -3
-7 0 -4 8 3 8 -1 21 -8 28 -7 8 -14 21 -16 28 -5 22 -62 103 -98 138 -17 17
-29 34 -26 37 3 3 1 6 -5 6 -6 0 -25 14 -43 30 -18 17 -38 30 -45 30 -7 0 -16
7 -19 16 -3 8 -10 12 -16 9 -5 -3 -10 -1 -10 4 0 6 -7 11 -15 11 -7 0 -19 8
-24 18 -6 9 -11 13 -11 9 0 -5 -13 1 -29 12 -15 11 -31 18 -35 14 -3 -3 -6 -1
-6 5 0 7 -3 11 -7 10 -5 -1 -21 5 -38 12 -16 7 -33 14 -37 15 -5 2 -11 4 -15
5 -5 1 -11 2 -15 1 -5 0 -8 4 -8 9 0 6 -8 10 -18 10 -10 0 -22 3 -26 7 -3 4
-13 8 -21 9 -8 1 -36 9 -62 18 -26 8 -59 18 -73 20 -14 3 -51 12 -84 21 -32 9
-64 14 -72 11 -7 -3 -16 -1 -19 4 -4 6 -19 10 -36 10 -16 0 -29 3 -29 8 0 4
-15 6 -32 6 -18 -1 -37 1 -42 4 -6 3 -26 7 -45 8 -20 2 -61 6 -91 9 -125 13
-150 13 -157 2z"/>
<path d="M2423 2246 c-6 -9 -10 -39 -16 -106 -1 -14 -6 -28 -12 -32 -6 -5 -5
-8 3 -8 10 0 10 -5 2 -20 -8 -14 -8 -20 0 -20 7 0 8 -5 3 -12 -4 -7 -9 -24
-10 -38 -8 -97 -11 -118 -17 -128 -3 -6 -2 -14 4 -17 8 -5 8 -11 0 -20 -7 -8
-9 -23 -5 -35 3 -11 2 -20 -2 -20 -5 0 -9 -27 -8 -60 0 -33 -2 -60 -5 -60 -3
0 -6 -19 -5 -42 0 -24 -4 -46 -10 -50 -5 -5 87 -7 205 -5 183 2 215 4 216 17
0 8 -4 20 -8 27 -5 6 -4 14 3 18 8 6 8 9 -1 15 -6 4 -12 32 -13 63 -1 32 -4
57 -8 57 -3 0 -6 16 -7 35 -5 83 -6 95 -12 95 -4 0 -6 16 -5 35 1 20 -3 35 -9
35 -6 0 -4 5 4 10 8 5 10 10 4 10 -6 0 -10 15 -9 36 1 19 -2 37 -6 40 -5 3 -8
20 -7 39 1 19 -4 40 -10 47 -6 8 -7 19 -2 28 5 8 5 21 0 29 -8 16 -10 24 -10
39 0 12 -240 10 -247 -2z"/>
<path d="M1133 1412 c-31 -3 -32 -5 -26 -35 4 -18 7 -46 7 -64 1 -17 5 -29 10
-25 5 3 7 -2 3 -11 -4 -10 -2 -17 5 -17 7 0 7 -4 -1 -13 -7 -9 -7 -17 -1 -23
6 -6 13 -32 15 -58 3 -26 10 -57 16 -67 7 -14 6 -19 -3 -19 -10 0 -10 -2 0 -9
8 -4 13 -11 13 -15 -1 -3 -1 -7 0 -8 0 -2 2 -17 2 -35 1 -17 5 -35 10 -39 12
-12 8 -26 -5 -18 -8 5 -8 1 1 -10 8 -10 16 -32 16 -49 1 -18 5 -39 8 -47 4 -8
8 -31 10 -50 2 -20 6 -40 10 -46 3 -6 7 -29 8 -52 2 -23 5 -42 8 -42 4 0 7
-17 9 -38 2 -35 9 -77 12 -77 1 0 3 -14 6 -32 6 -50 8 -57 19 -65 6 -5 5 -8
-3 -8 -7 0 -10 -4 -7 -10 8 -13 21 -77 29 -140 1 -9 4 -20 7 -25 3 -6 4 -20 3
-32 0 -13 2 -23 6 -23 4 0 7 -6 8 -12 0 -7 2 -30 3 -51 1 -20 5 -37 9 -37 4 0
6 -14 5 -30 -1 -17 1 -33 6 -36 5 -3 7 -9 4 -14 -3 -5 0 -12 7 -16 18 -12
2400 -11 2404 1 2 6 6 24 8 40 2 17 6 37 9 45 4 8 8 35 11 60 5 59 9 73 21 82
6 5 6 8 -2 8 -11 0 -7 35 7 55 3 6 6 27 6 47 -1 22 4 40 12 43 10 3 10 10 2
25 -6 11 -7 20 -2 20 8 0 12 27 12 78 0 12 4 22 8 22 4 0 8 12 9 28 3 53 10
97 17 114 4 9 5 22 1 28 -3 5 -3 10 2 10 4 0 9 17 11 38 3 56 7 68 22 88 8 10
10 15 3 11 -8 -5 -11 1 -8 20 2 16 4 28 5 28 1 0 4 14 6 30 5 44 9 64 17 71
12 12 8 26 -5 18 -7 -5 -8 -3 -2 7 11 17 15 35 18 79 2 19 6 42 9 50 7 19 28
135 32 175 2 17 6 40 9 53 3 13 0 22 -7 23 -79 5 -127 3 -127 -6 0 -7 -3 -7
-8 0 -6 9 -2638 16 -2729 7z"/>
</g>
</svg>
